<svg width="26" height="26" viewBox="-0.5 0 24 24" fill="none" xmlns="http://www.w3.org/2000/svg">
<path d="M3 12.3252C3 13.5071 3.23279 14.6774 3.68508 15.7693C4.13738 16.8613 4.80031 17.8534 5.63604 18.6892C6.47177 19.5249 7.46392 20.1878 8.55585 20.6401C9.64778 21.0924 10.8181 21.3252 12 21.3252M3 12.3252C3 11.1433 3.23279 9.97297 3.68508 8.88104C4.13738 7.78911 4.80031 6.79696 5.63604 5.96123C6.47177 5.12551 7.46392 4.46257 8.55585 4.01028C9.64778 3.55799 10.8181 3.3252 12 3.3252M3 12.3252H7M12 21.3252C13.1819 21.3252 14.3522 21.0924 15.4442 20.6401C16.5361 20.1878 17.5282 19.5249 18.364 18.6892C19.1997 17.8534 19.8626 16.8613 20.3149 15.7693C20.7672 14.6774 21 13.5071 21 12.3252M12 21.3252V18.3252M21 12.3252C21 11.1433 20.7672 9.97297 20.3149 8.88104C19.8626 7.78911 19.1997 6.79696 18.364 5.96123C17.5282 5.12551 16.5361 4.46257 15.4442 4.01028C14.3522 3.55799 13.1819 3.3252 12 3.3252M21 12.3252H18M12 3.3252V7.3252M12 12.3252V12.3352" stroke="#354052" stroke-width="2" stroke-linecap="round" stroke-linejoin="round"/>
</svg>
