<svg viewBox="0 0 24 24" xmlns="http://www.w3.org/2000/svg"><g id="Layer_2" data-name="Layer 2"><path d="m18.458 19.50146h-12.92284a2.78536 2.78536 0 0 1 -1.84668-4.8706l.38232-.33986a2.80758 2.80758 0 0 0 .90576-1.63526l.79-4.74219a6.3156 6.3156 0 0 1 6.24854-5.29394h.0039a6.31529 6.31529 0 0 1 6.24854 5.29394l.78515 4.70948a2.80064 2.80064 0 0 0 .93946 1.665l.28564.2456a2.83378 2.83378 0 0 1 -1.81979 4.96783zm-6.44286-15.38183a4.82067 4.82067 0 0 0 -4.76905 4.04053l-.79 4.74218a4.30967 4.30967 0 0 1 -1.39013 2.51123l-.38233.33985a1.28555 1.28555 0 0 0 .85157 2.248h12.9228a1.28113 1.28113 0 0 0 1.27881-1.15722 1.32169 1.32169 0 0 0 -.436-1.17236l-.28515-.24512a4.29933 4.29933 0 0 1 -1.44239-2.55713l-.78515-4.70947a4.81991 4.81991 0 0 0 -4.769-4.04053z"/><path d="m12 22.75a3.7541 3.7541 0 0 1 -3.75-3.75v-.25a.75.75 0 0 1 1.5 0v.25a2.25 2.25 0 0 0 4.5 0v-.25a.75.75 0 0 1 1.5 0v.25a3.7541 3.7541 0 0 1 -3.75 3.75z"/><path d="m12 3.75a.7502.7502 0 0 1 -.75-.75v-1a.75.75 0 0 1 1.5 0v1a.7502.7502 0 0 1 -.75.75z"/></g></svg>